#N canvas 654 151 1027 725 12;
#X obj 29 22 array define scale 7;
#X obj 29 95 array set scale;
#X msg 29 54 0 2 4 5 7 9 11;
#X obj 445 372 tabread scale;
#X msg 392 549 \$1 60;
#X obj 505 60 tgl 15 0 empty empty empty 17 7 0 10 -262144 -1 -1 1
1;
#X floatatom 565 71 5 0 0 0 - - -;
#X obj 392 573 makenote 60 100;
#X obj 448 323 random 7;
#X obj 505 124 f;
#X obj 536 125 + 1;
#X obj 392 517 + 36;
#X obj 389 478 +;
#X obj 449 283 bng 15 250 50 0 empty empty empty 17 7 0 10 -262144
-1 -1;
#X obj 361 259 * 12;
#X obj 447 215 % 16;
#X obj 449 245 sel 0;
#X obj 361 194 % 4;
#X obj 505 100 metro 100;
#X obj 392 606 noteout 1;
#X floatatom 371 115 5 0 0 0 - - -;
#X connect 2 0 1 0;
#X connect 3 0 12 1;
#X connect 4 0 7 0;
#X connect 5 0 18 0;
#X connect 6 0 18 1;
#X connect 7 0 19 0;
#X connect 7 1 19 1;
#X connect 8 0 3 0;
#X connect 9 0 10 0;
#X connect 9 0 15 0;
#X connect 9 0 17 0;
#X connect 10 0 9 1;
#X connect 11 0 4 0;
#X connect 12 0 11 0;
#X connect 13 0 8 0;
#X connect 14 0 12 0;
#X connect 15 0 16 0;
#X connect 16 0 13 0;
#X connect 17 0 14 0;
#X connect 18 0 9 0;
#X connect 20 0 17 1;
