#N canvas 746 82 1027 725 12;
#X obj 508 170 tgl 15 0 empty empty empty 17 7 0 10 #fcfcfc #000000
#000000 0 1;
#X obj 423 326 + 1;
#X obj 29 95 array set phase;
#X obj 29 22 array define phase 12;
#X obj 392 358 % 12;
#X obj 392 439 tabread phase;
#X msg 29 54 4 6 11 13 14 6 4 13 11 6 14 13;
#X obj 392 539 pack 0 0;
#X obj 392 382 t f f;
#X obj 450 410 sel 0;
#X obj 392 247 metro 150;
#X obj 636 329 + 1;
#X obj 605 361 % 12;
#X obj 605 442 tabread phase;
#X obj 605 521 pack 0 0;
#X obj 605 385 t f f;
#X obj 660 410 sel 0;
#X msg 482 277 0;
#X obj 392 668 noteout 1;
#X obj 607 656 noteout 2;
#X msg 450 480 57;
#X msg 485 481 50;
#X msg 660 480 57;
#X msg 700 480 50;
#X obj 508 190 t f f;
#X obj 392 573 makenote 60 150;
#X obj 392 325 f 0;
#X obj 605 328 f 0;
#X obj 605 476 + 60;
#X obj 392 473 + 60;
#X obj 605 250 metro 151;
#X obj 605 576 makenote 60 150;
#X connect 0 0 24 0;
#X connect 1 0 26 1;
#X connect 4 0 8 0;
#X connect 5 0 29 0;
#X connect 6 0 2 0;
#X connect 7 0 25 0;
#X connect 8 0 5 0;
#X connect 8 1 9 0;
#X connect 9 0 20 0;
#X connect 9 1 21 0;
#X connect 10 0 26 0;
#X connect 11 0 27 1;
#X connect 12 0 15 0;
#X connect 13 0 28 0;
#X connect 14 0 31 0;
#X connect 15 0 13 0;
#X connect 15 1 16 0;
#X connect 16 0 22 0;
#X connect 16 1 23 0;
#X connect 17 0 26 1;
#X connect 17 0 27 1;
#X connect 20 0 7 1;
#X connect 21 0 7 1;
#X connect 22 0 14 1;
#X connect 23 0 14 1;
#X connect 24 0 10 0;
#X connect 24 0 30 0;
#X connect 24 1 17 0;
#X connect 25 0 18 0;
#X connect 25 1 18 1;
#X connect 26 0 1 0;
#X connect 26 0 4 0;
#X connect 27 0 11 0;
#X connect 27 0 12 0;
#X connect 28 0 14 0;
#X connect 29 0 7 0;
#X connect 30 0 27 0;
#X connect 31 0 19 0;
#X connect 31 1 19 1;
