#N canvas 173 98 1297 725 12;
#X obj 29 22 array define scale 7;
#X obj 29 95 array set scale;
#X msg 29 54 0 2 4 5 7 9 11;
#X obj 356 333 f;
#X obj 395 335 + 1;
#X obj 658 68 metro 125;
#X obj 356 418 t f f;
#X obj 356 370 % 24;
#X obj 413 467 * 12;
#X obj 356 499 tabread scale;
#X obj 356 523 +;
#X obj 678 670 noteout;
#X obj 658 28 tgl 15 0 empty empty empty 17 7 0 10 -262144 -1 -1 1
1;
#X obj 356 442 % 7;
#X obj 413 443 div 7;
#X obj 356 67 random 100;
#X obj 356 123 t b;
#X obj 409 277 t b b;
#X obj 606 296 f;
#X obj 645 298 + 1;
#X obj 606 351 t f f;
#X obj 606 320 % 24;
#X obj 663 400 * 12;
#X obj 606 432 tabread scale;
#X obj 606 456 +;
#X obj 606 375 % 7;
#X obj 663 376 div 7;
#X obj 606 155 random 100;
#X obj 606 208 t b;
#X obj 659 209 t b b;
#X obj 898 320 f;
#X obj 937 322 + 1;
#X obj 898 375 t f f;
#X obj 898 344 % 24;
#X obj 955 424 * 12;
#X obj 898 456 tabread scale;
#X obj 898 480 +;
#X obj 898 399 % 7;
#X obj 955 400 div 7;
#X obj 898 179 random 100;
#X obj 898 232 t b;
#X obj 951 233 t b b;
#X obj 899 589 makenote 60 99;
#X floatatom 718 39 5 0 0 0 - - -;
#X floatatom 751 193 5 0 0 0 - - -;
#X floatatom 491 93 5 0 0 0 - - -;
#X obj 606 559 makenote 60 99;
#X obj 356 570 + 72;
#X obj 606 503 + 60;
#X obj 898 527 + 36;
#X floatatom 1016 188 5 0 0 0 - - -;
#X obj 356 626 makenote 60 100;
#X obj 356 99 moses 70;
#X obj 606 184 moses 70;
#X obj 897 208 moses 70;
#X obj 441 308 random 8;
#X obj 691 237 random 8;
#X obj 983 261 random 8;
#X msg 356 602 \$1 48;
#X msg 606 535 \$1 48;
#X msg 898 559 \$1 48;
#X connect 2 0 1 0;
#X connect 3 0 4 0;
#X connect 3 0 7 0;
#X connect 4 0 3 1;
#X connect 5 0 15 0;
#X connect 5 0 39 0;
#X connect 5 0 27 0;
#X connect 6 0 13 0;
#X connect 6 1 14 0;
#X connect 7 0 6 0;
#X connect 8 0 10 1;
#X connect 9 0 10 0;
#X connect 10 0 47 0;
#X connect 12 0 5 0;
#X connect 13 0 9 0;
#X connect 14 0 8 0;
#X connect 15 0 52 0;
#X connect 16 0 3 0;
#X connect 17 0 3 0;
#X connect 17 1 55 0;
#X connect 18 0 19 0;
#X connect 18 0 21 0;
#X connect 19 0 18 1;
#X connect 20 0 25 0;
#X connect 20 1 26 0;
#X connect 21 0 20 0;
#X connect 22 0 24 1;
#X connect 23 0 24 0;
#X connect 24 0 48 0;
#X connect 25 0 23 0;
#X connect 26 0 22 0;
#X connect 27 0 53 0;
#X connect 28 0 18 0;
#X connect 29 0 18 0;
#X connect 29 1 56 0;
#X connect 30 0 31 0;
#X connect 30 0 33 0;
#X connect 31 0 30 1;
#X connect 32 0 37 0;
#X connect 32 1 38 0;
#X connect 33 0 32 0;
#X connect 34 0 36 1;
#X connect 35 0 36 0;
#X connect 36 0 49 0;
#X connect 37 0 35 0;
#X connect 38 0 34 0;
#X connect 39 0 54 0;
#X connect 40 0 30 0;
#X connect 41 0 30 0;
#X connect 41 1 57 0;
#X connect 42 0 11 0;
#X connect 42 1 11 1;
#X connect 43 0 5 1;
#X connect 44 0 53 1;
#X connect 45 0 52 1;
#X connect 46 0 11 0;
#X connect 46 1 11 1;
#X connect 47 0 58 0;
#X connect 48 0 59 0;
#X connect 49 0 60 0;
#X connect 50 0 54 1;
#X connect 51 0 11 0;
#X connect 51 1 11 1;
#X connect 52 0 16 0;
#X connect 52 1 17 0;
#X connect 53 0 28 0;
#X connect 53 1 29 0;
#X connect 54 0 40 0;
#X connect 54 1 41 0;
#X connect 55 0 3 1;
#X connect 56 0 18 1;
#X connect 57 0 30 1;
#X connect 58 0 51 0;
#X connect 59 0 46 0;
#X connect 60 0 42 0;
