#N canvas 542 312 971 642 12;
#X obj 30 34 bng 15 250 50 0 empty empty empty 17 7 0 10 -262144 -1
-1;
#X obj 30 54 openpanel;
#X msg 30 78 read -resize \$1 amen;
#X obj 30 102 soundfiler;
#X floatatom 30 126 0 0 0 0 - - -;
#X obj 97 127 print;
#X obj 330 369 tabplay~ amen;
#X obj 330 410 dac~;
#X obj 47 216 array define amen;
#X obj 508 91 / 16;
#X obj 30 163 v dur;
#X obj 508 52 v dur;
#X obj 403 111 / 44.1;
#X obj 330 157 metro;
#X obj 314 113 tgl 15 0 empty empty empty 17 7 0 10 -262144 -1 -1 0
1;
#X obj 512 14 bng 15 250 50 0 empty empty empty 17 7 0 10 -262144 -1
-1;
#X obj 330 181 random 16;
#X obj 330 241 t f f;
#X msg 225 323 \$1 \$2;
#X obj 383 260 +;
#X obj 330 303 pack 0 0;
#X obj 360 336 print;
#X obj 330 205 *;
#X floatatom 612 116 5 0 0 0 - - -;
#X obj 612 139 t b f;
#X connect 0 0 1 0;
#X connect 1 0 2 0;
#X connect 2 0 3 0;
#X connect 3 0 4 0;
#X connect 3 1 5 0;
#X connect 4 0 10 0;
#X connect 6 0 7 0;
#X connect 6 0 7 1;
#X connect 9 0 12 0;
#X connect 9 0 19 1;
#X connect 9 0 22 1;
#X connect 11 0 9 0;
#X connect 12 0 13 1;
#X connect 13 0 16 0;
#X connect 14 0 13 0;
#X connect 15 0 11 0;
#X connect 16 0 22 0;
#X connect 17 0 20 0;
#X connect 17 1 19 0;
#X connect 19 0 20 1;
#X connect 20 0 6 0;
#X connect 20 0 21 0;
#X connect 22 0 17 0;
#X connect 23 0 24 0;
#X connect 24 0 11 0;
#X connect 24 1 9 1;
